<svg width="100" height="100" viewBox="0 0 100 100" fill="none" xmlns="http://www.w3.org/2000/svg">
<rect width="100" height="100" rx="50" fill="white"/>
<path d="M18.996 63.396C17.434 63.396 15.993 63.11 14.673 62.538C13.375 61.944 12.308 61.108 11.472 60.03L14.442 56.466C15.696 58.16 17.126 59.007 18.732 59.007C20.91 59.007 21.999 57.731 21.999 55.179V44.19H13.881V39.9H27.312V54.882C27.312 57.72 26.608 59.854 25.2 61.284C23.792 62.692 21.724 63.396 18.996 63.396ZM67.5065 39.9L59.9495 63H54.2075L49.1255 47.358L43.8785 63H38.1695L30.5795 39.9H36.1235L41.3375 56.136L46.7825 39.9H51.7325L57.0125 56.268L62.3915 39.9H67.5065ZM75.3404 44.256H67.9484V39.9H88.0784V44.256H80.6864V63H75.3404V44.256Z" fill="black"/>
</svg>
